<?xml version="1.0" encoding="UTF-8"?>
<svg width="194px" height="43px" viewBox="0 0 194 43" version="1.1" xmlns="http://www.w3.org/2000/svg" xmlns:xlink="http://www.w3.org/1999/xlink">
    <title>形状结合</title>
    <defs>
        <linearGradient x1="50%" y1="0%" x2="50%" y2="100%" id="linearGradient-1">
            <stop stop-color="#474E5B" offset="0%"></stop>
            <stop stop-color="#8F9AAF" offset="100%"></stop>
        </linearGradient>
        <path d="M74.56,157.42 C75.79,157.42 76.78,157.27 77.59,157.03 L77.29,153.49 C76.45,153.76 75.49,153.91 74.47,153.91 C70.57,153.91 66.13,150.7 65.38,145.48 C64.66,140.2 67.81,137.44 71.68,137.44 C72.91,137.44 73.99,137.65 74.92,137.95 L74.59,134.26 C73.69,134.02 72.64,133.9 71.59,133.9 C65.26,133.9 60.4,138.55 61.42,145.9 C62.47,153.31 68.59,157.42 74.56,157.42 Z M84.31,146.14 L83.56,140.26 C83.26,138.1 85.36,137.44 87.7,137.44 C90.16,137.44 92.62,138.52 93.76,139.75 L93.31,135.61 C92.59,134.98 90.43,133.9 87.61,133.9 C82.12,133.9 79.03,136.57 79.66,141.04 C80.02,143.71 81.97,145.21 84.31,146.14 Z M93.85,156.52 C96.19,155.47 97.45,153.28 97,150.01 C96.49,146.35 94.06,145 90.67,144.04 L91.06,148.12 C92.23,148.69 92.95,149.5 93.13,150.64 L93.85,156.52 Z M87.49,157.36 L87.19,153.76 C84.19,153.31 81.64,151.66 80.86,150.49 L81.43,155.29 C82.09,155.8 84.04,157.03 87.49,157.36 Z M103.93,146.14 L103.18,140.26 C102.88,138.1 104.98,137.44 107.32,137.44 C109.78,137.44 112.24,138.52 113.38,139.75 L112.93,135.61 C112.21,134.98 110.05,133.9 107.23,133.9 C101.74,133.9 98.65,136.57 99.28,141.04 C99.64,143.71 101.59,145.21 103.93,146.14 Z M113.47,156.52 C115.81,155.47 117.07,153.28 116.62,150.01 C116.11,146.35 113.68,145 110.29,144.04 L110.68,148.12 C111.85,148.69 112.57,149.5 112.75,150.64 L113.47,156.52 Z M107.11,157.36 L106.81,153.76 C103.81,153.31 101.26,151.66 100.48,150.49 L101.05,155.29 C101.71,155.8 103.66,157.03 107.11,157.36 Z M141.43,138.07 L140.95,134.29 C140.95,134.38 140.8,134.29 140.62,134.29 L127.51,134.29 L128.02,137.83 L140.92,137.83 C141.1,137.83 141.37,137.95 141.43,138.07 Z M142.03,147.67 L141.61,143.89 C141.55,143.98 141.43,143.89 141.22,143.89 L128.86,143.89 L129.37,147.43 L141.52,147.43 C141.76,147.43 141.94,147.58 142.03,147.67 Z M144.1,157.18 L143.65,153.43 C143.62,153.52 143.5,153.46 143.32,153.46 L130.21,153.46 L130.69,157 L143.62,157 C143.8,157 144.07,157.09 144.1,157.18 Z M146.53,143.86 L157.09,143.86 L156.64,140.77 L152.32,140.77 L152.08,139.03 C151.81,137.05 152.5,136.33 153.55,136.33 C154.75,136.33 155.44,136.66 155.83,136.9 L156.28,133.99 C155.59,133.51 154.54,133.15 153.07,133.15 C149.92,133.15 147.88,135.19 148.42,139.27 L148.63,140.77 L146.08,140.77 L146.53,143.86 Z M150.34,163.81 C153.49,163.81 155.17,161.17 154.54,156.79 L153.67,150.52 L150.01,150.52 L150.97,157.27 C151.18,158.95 150.52,160.27 148.99,160.27 C148.45,160.27 147.85,160.15 147.46,159.94 L149.11,163.51 C149.32,163.63 149.92,163.81 150.34,163.81 Z M161.14,143.86 L171.7,143.86 L171.25,140.77 L166.93,140.77 L166.69,139.03 C166.42,137.05 167.11,136.33 168.16,136.33 C169.36,136.33 170.05,136.66 170.44,136.9 L170.89,133.99 C170.2,133.51 169.15,133.15 167.68,133.15 C164.53,133.15 162.49,135.19 163.03,139.27 L163.24,140.77 L160.69,140.77 L161.14,143.86 Z M164.95,163.81 C168.1,163.81 169.78,161.17 169.15,156.79 L168.28,150.52 L164.62,150.52 L165.58,157.27 C165.79,158.95 165.13,160.27 163.6,160.27 C163.06,160.27 162.46,160.15 162.07,159.94 L163.72,163.51 C163.93,163.63 164.53,163.81 164.95,163.81 Z M183.85,140.44 L184.09,143.53 C186.01,143.92 187.51,145.39 187.78,147.43 L184.72,147.31 L185.11,150.13 L191.38,150.04 C191.47,149.62 191.5,148.66 191.41,147.85 C190.9,144.25 188.38,140.92 183.85,140.44 Z M175.69,149.26 C176.38,154.24 180.19,157.42 185.44,157.42 C188.56,157.42 190.99,156.64 192.19,155.59 L191.05,152.77 C189.97,153.73 187.9,154.21 185.62,154.21 C182.89,154.21 180.19,152.68 179.71,150.01 L178.6,141.52 C176.26,143.02 175.21,145.93 175.69,149.26 Z M202.21,143.62 C204.04,143.62 205.66,144.22 206.56,144.97 L207.31,141.64 C205.87,140.83 203.95,140.38 201.94,140.38 L202.21,143.62 Z M193.96,149.11 C194.59,153.55 198.43,157.42 204.04,157.42 C206.74,157.42 208.42,156.67 209.59,155.77 L208.27,152.71 C207.64,153.64 206.05,154.21 203.98,154.21 C200.41,154.21 198.01,151.57 197.62,148.78 L196.75,141.97 C194.59,143.53 193.57,146.2 193.96,149.11 Z M210.4,143.89 L220.81,143.89 L220.36,140.77 L216.22,140.77 L215.53,135.82 L211.84,136.03 L212.5,140.77 L209.95,140.77 L210.4,143.89 Z M219.91,157.42 C221.71,157.42 222.97,156.76 223.6,156.01 L222.4,153.28 C221.95,153.79 221.29,154.03 220.36,154.03 C219.07,154.03 217.96,153.07 217.72,151.45 L217.6,150.52 L213.88,150.52 L214.03,151.69 C214.63,155.77 216.7,157.42 219.91,157.42 Z M228.79,149.65 L228.25,145.15 C228.1,144.07 229.51,143.38 231.43,143.38 C233.8,143.38 235.96,144.55 236.44,145.18 L237.04,142.21 C236.65,141.82 234.58,140.38 231.4,140.38 C227.35,140.38 224.14,142.42 224.59,145.66 C224.92,147.94 226.63,149.02 228.79,149.65 Z M236.38,156.88 C238.66,156.1 239.77,154.36 239.38,151.69 C239.02,149.08 237.07,148.12 233.5,147.34 L233.8,150.79 C234.94,151.15 235.75,151.72 235.84,152.44 L236.38,156.88 Z M231.58,157.39 L231.34,154.24 C228.91,154 226.75,152.86 226.03,152.11 L225.94,155.68 C226.69,156.19 228.52,157.21 231.58,157.39 Z" id="path-2"></path>
        <filter x="-4.5%" y="-35.9%" width="118.0%" height="197.8%" filterUnits="objectBoundingBox" id="filter-3">
            <feOffset dx="9" dy="4" in="SourceAlpha" result="shadowOffsetOuter1"></feOffset>
            <feGaussianBlur stdDeviation="3.5" in="shadowOffsetOuter1" result="shadowBlurOuter1"></feGaussianBlur>
            <feColorMatrix values="0 0 0 0 0   0 0 0 0 0   0 0 0 0 0  0 0 0 0.164228106 0" type="matrix" in="shadowBlurOuter1"></feColorMatrix>
        </filter>
    </defs>
    <g id="页面-2" stroke="none" stroke-width="1" fill="none" fill-rule="evenodd">
        <g id="桌面端-HD" transform="translate(-61.000000, -131.000000)" fill-rule="nonzero">
            <g id="形状结合">
                <use fill="black" fill-opacity="1" filter="url(#filter-3)" xlink:href="#path-2"></use>
                <use fill="url(#linearGradient-1)" xlink:href="#path-2"></use>
            </g>
        </g>
    </g>
</svg>