<?xml version="1.0" encoding="UTF-8"?>
<svg width="179px" height="31px" viewBox="0 0 179 31" version="1.1" xmlns="http://www.w3.org/2000/svg" xmlns:xlink="http://www.w3.org/1999/xlink">
    <title>形状结合</title>
    <g id="页面-2" stroke="none" stroke-width="1" fill="none" fill-rule="evenodd" fill-opacity="0.904250779">
        <g id="桌面端-HD" transform="translate(-919.000000, -419.000000)" fill="#FFFFFF" fill-rule="nonzero">
            <path d="M932.56,443.42 C933.79,443.42 934.78,443.27 935.59,443.03 L935.29,439.49 C934.45,439.76 933.49,439.91 932.47,439.91 C928.57,439.91 924.13,436.7 923.38,431.48 C922.66,426.2 925.81,423.44 929.68,423.44 C930.91,423.44 931.99,423.65 932.92,423.95 L932.59,420.26 C931.69,420.02 930.64,419.9 929.59,419.9 C923.26,419.9 918.4,424.55 919.42,431.9 C920.47,439.31 926.59,443.42 932.56,443.42 Z M942.31,432.14 L941.56,426.26 C941.26,424.1 943.36,423.44 945.7,423.44 C948.16,423.44 950.62,424.52 951.76,425.75 L951.31,421.61 C950.59,420.98 948.43,419.9 945.61,419.9 C940.12,419.9 937.03,422.57 937.66,427.04 C938.02,429.71 939.97,431.21 942.31,432.14 Z M951.85,442.52 C954.19,441.47 955.45,439.28 955,436.01 C954.49,432.35 952.06,431 948.67,430.04 L949.06,434.12 C950.23,434.69 950.95,435.5 951.13,436.64 L951.85,442.52 Z M945.49,443.36 L945.19,439.76 C942.19,439.31 939.64,437.66 938.86,436.49 L939.43,441.29 C940.09,441.8 942.04,443.03 945.49,443.36 Z M961.93,432.14 L961.18,426.26 C960.88,424.1 962.98,423.44 965.32,423.44 C967.78,423.44 970.24,424.52 971.38,425.75 L970.93,421.61 C970.21,420.98 968.05,419.9 965.23,419.9 C959.74,419.9 956.65,422.57 957.28,427.04 C957.64,429.71 959.59,431.21 961.93,432.14 Z M971.47,442.52 C973.81,441.47 975.07,439.28 974.62,436.01 C974.11,432.35 971.68,431 968.29,430.04 L968.68,434.12 C969.85,434.69 970.57,435.5 970.75,436.64 L971.47,442.52 Z M965.11,443.36 L964.81,439.76 C961.81,439.31 959.26,437.66 958.48,436.49 L959.05,441.29 C959.71,441.8 961.66,443.03 965.11,443.36 Z M999.43,424.07 L998.95,420.29 C998.95,420.38 998.8,420.29 998.62,420.29 L985.51,420.29 L986.02,423.83 L998.92,423.83 C999.1,423.83 999.37,423.95 999.43,424.07 Z M1000.03,433.67 L999.61,429.89 C999.55,429.98 999.43,429.89 999.22,429.89 L986.86,429.89 L987.37,433.43 L999.52,433.43 C999.76,433.43 999.94,433.58 1000.03,433.67 Z M1002.1,443.18 L1001.65,439.43 C1001.62,439.52 1001.5,439.46 1001.32,439.46 L988.21,439.46 L988.69,443 L1001.62,443 C1001.8,443 1002.07,443.09 1002.1,443.18 Z M1004.53,429.86 L1015.09,429.86 L1014.64,426.77 L1010.32,426.77 L1010.08,425.03 C1009.81,423.05 1010.5,422.33 1011.55,422.33 C1012.75,422.33 1013.44,422.66 1013.83,422.9 L1014.28,419.99 C1013.59,419.51 1012.54,419.15 1011.07,419.15 C1007.92,419.15 1005.88,421.19 1006.42,425.27 L1006.63,426.77 L1004.08,426.77 L1004.53,429.86 Z M1008.34,449.81 C1011.49,449.81 1013.17,447.17 1012.54,442.79 L1011.67,436.52 L1008.01,436.52 L1008.97,443.27 C1009.18,444.95 1008.52,446.27 1006.99,446.27 C1006.45,446.27 1005.85,446.15 1005.46,445.94 L1007.11,449.51 C1007.32,449.63 1007.92,449.81 1008.34,449.81 Z M1019.14,429.86 L1029.7,429.86 L1029.25,426.77 L1024.93,426.77 L1024.69,425.03 C1024.42,423.05 1025.11,422.33 1026.16,422.33 C1027.36,422.33 1028.05,422.66 1028.44,422.9 L1028.89,419.99 C1028.2,419.51 1027.15,419.15 1025.68,419.15 C1022.53,419.15 1020.49,421.19 1021.03,425.27 L1021.24,426.77 L1018.69,426.77 L1019.14,429.86 Z M1022.95,449.81 C1026.1,449.81 1027.78,447.17 1027.15,442.79 L1026.28,436.52 L1022.62,436.52 L1023.58,443.27 C1023.79,444.95 1023.13,446.27 1021.6,446.27 C1021.06,446.27 1020.46,446.15 1020.07,445.94 L1021.72,449.51 C1021.93,449.63 1022.53,449.81 1022.95,449.81 Z M1041.85,426.44 L1042.09,429.53 C1044.01,429.92 1045.51,431.39 1045.78,433.43 L1042.72,433.31 L1043.11,436.13 L1049.38,436.04 C1049.47,435.62 1049.5,434.66 1049.41,433.85 C1048.9,430.25 1046.38,426.92 1041.85,426.44 Z M1033.69,435.26 C1034.38,440.24 1038.19,443.42 1043.44,443.42 C1046.56,443.42 1048.99,442.64 1050.19,441.59 L1049.05,438.77 C1047.97,439.73 1045.9,440.21 1043.62,440.21 C1040.89,440.21 1038.19,438.68 1037.71,436.01 L1036.6,427.52 C1034.26,429.02 1033.21,431.93 1033.69,435.26 Z M1060.21,429.62 C1062.04,429.62 1063.66,430.22 1064.56,430.97 L1065.31,427.64 C1063.87,426.83 1061.95,426.38 1059.94,426.38 L1060.21,429.62 Z M1051.96,435.11 C1052.59,439.55 1056.43,443.42 1062.04,443.42 C1064.74,443.42 1066.42,442.67 1067.59,441.77 L1066.27,438.71 C1065.64,439.64 1064.05,440.21 1061.98,440.21 C1058.41,440.21 1056.01,437.57 1055.62,434.78 L1054.75,427.97 C1052.59,429.53 1051.57,432.2 1051.96,435.11 Z M1068.4,429.89 L1078.81,429.89 L1078.36,426.77 L1074.22,426.77 L1073.53,421.82 L1069.84,422.03 L1070.5,426.77 L1067.95,426.77 L1068.4,429.89 Z M1077.91,443.42 C1079.71,443.42 1080.97,442.76 1081.6,442.01 L1080.4,439.28 C1079.95,439.79 1079.29,440.03 1078.36,440.03 C1077.07,440.03 1075.96,439.07 1075.72,437.45 L1075.6,436.52 L1071.88,436.52 L1072.03,437.69 C1072.63,441.77 1074.7,443.42 1077.91,443.42 Z M1086.79,435.65 L1086.25,431.15 C1086.1,430.07 1087.51,429.38 1089.43,429.38 C1091.8,429.38 1093.96,430.55 1094.44,431.18 L1095.04,428.21 C1094.65,427.82 1092.58,426.38 1089.4,426.38 C1085.35,426.38 1082.14,428.42 1082.59,431.66 C1082.92,433.94 1084.63,435.02 1086.79,435.65 Z M1094.38,442.88 C1096.66,442.1 1097.77,440.36 1097.38,437.69 C1097.02,435.08 1095.07,434.12 1091.5,433.34 L1091.8,436.79 C1092.94,437.15 1093.75,437.72 1093.84,438.44 L1094.38,442.88 Z M1089.58,443.39 L1089.34,440.24 C1086.91,440 1084.75,438.86 1084.03,438.11 L1083.94,441.68 C1084.69,442.19 1086.52,443.21 1089.58,443.39 Z" id="形状结合"></path>
        </g>
    </g>
</svg>