<?xml version="1.0" encoding="UTF-8"?>
<svg width="39px" height="60px" viewBox="0 0 39 60" version="1.1" xmlns="http://www.w3.org/2000/svg" xmlns:xlink="http://www.w3.org/1999/xlink">
    <title>D</title>
    <g id="页面-2" stroke="none" stroke-width="1" fill="none" fill-rule="evenodd">
        <g id="桌面端-HD" transform="translate(-414.000000, -689.000000)" fill="#C2B4CB" fill-rule="nonzero">
            <path d="M439.733398,744.662109 C439.504883,747.125 437.016602,748.724609 433.512695,748.724609 C429.983398,748.724609 427.520508,747.125 427.291992,744.662109 L427.291992,744.662109 Z M441.764648,737.832031 C443.05957,737.832031 444.100586,738.898438 444.100586,740.21875 C444.100586,741.539062 443.05957,742.605469 441.764648,742.605469 L441.764648,742.605469 L425.286133,742.605469 C423.991211,742.605469 422.924805,741.539062 422.924805,740.21875 C422.924805,738.898438 423.991211,737.832031 425.286133,737.832031 L425.286133,737.832031 Z M433.487305,689.945312 C445.192383,689.945312 453.012695,697.664062 453.012695,709.216797 C453.012695,720.185547 444.100586,724.146484 444.100586,730.291016 L444.100586,730.291016 L444.100586,734.353516 C444.100586,735.216797 443.541992,735.75 442.678711,735.75 L442.678711,735.75 L424.295898,735.75 C423.458008,735.75 422.899414,735.216797 422.899414,734.353516 L422.899414,734.353516 L422.899414,730.291016 C422.899414,724.146484 413.987305,720.185547 413.987305,709.216797 C413.987305,697.664062 421.782227,689.945312 433.487305,689.945312 Z M433.487305,693.779297 C424.092773,693.779297 417.821289,699.949219 417.821289,709.242188 C417.821289,718.890625 426.682617,722.876953 426.682617,730.341797 L426.682617,730.341797 L426.682617,731.916016 L440.317383,731.916016 L440.317383,730.341797 C440.317383,722.876953 449.178711,718.890625 449.178711,709.242188 C449.178711,699.949219 442.907227,693.779297 433.487305,693.779297 Z M434.353027,706.135742 C437.347168,706.135742 439.104004,707.837891 439.104004,710.996094 C439.104004,714.154297 437.340332,716 434.353027,716 L434.353027,716 L431.584473,716 C430.661621,716 430.135254,715.453125 430.135254,714.482422 L430.135254,714.482422 L430.135254,707.65332 C430.135254,706.682617 430.661621,706.135742 431.584473,706.135742 L431.584473,706.135742 Z M433.942871,708.439453 L433.033691,708.439453 L433.033691,713.696289 L433.942871,713.696289 C435.39209,713.696289 436.150879,712.814453 436.150879,710.996094 C436.150879,709.334961 435.330566,708.439453 433.942871,708.439453 L433.942871,708.439453 Z" id="D"></path>
        </g>
    </g>
</svg>