<?xml version="1.0" encoding="UTF-8"?>
<svg width="73px" height="73px" viewBox="0 0 73 73" version="1.1" xmlns="http://www.w3.org/2000/svg" xmlns:xlink="http://www.w3.org/1999/xlink">
    <title>dark</title>
    <g id="é¡µé¢-2" stroke="none" stroke-width="1" fill="none" fill-rule="evenodd">
        <g id="bgå¤‡ä»½-3" transform="translate(-102.000000, -101.000000)" fill="#9083F4" fill-rule="nonzero">
            <path d="M159.023438,150.956055 C138.644531,150.956055 125.998047,138.707031 125.998047,118.978516 C125.998047,113.486328 126.865234,108.789062 128.310547,105.826172 C128.708008,104.958984 128.816406,104.489258 128.816406,103.947266 C128.816406,102.97168 127.985352,101.923828 126.756836,101.923828 C126.503906,101.923828 125.889648,101.996094 125.058594,102.321289 C111.978516,107.524414 102.764648,121.47168 102.764648,136.394531 C102.764648,158.001953 118.482422,173.755859 140.089844,173.755859 C155.265625,173.755859 168.128906,165.517578 173.837891,152.4375 C174.163086,151.714844 174.235352,151.100586 174.235352,150.775391 C174.235352,149.546875 173.259766,148.751953 172.320312,148.751953 C171.850586,148.751953 171.489258,148.788086 170.802734,149.041016 C168.128906,150.161133 163.359375,150.956055 159.023438,150.956055 Z M107.136719,136.213867 C107.136719,124.290039 113.640625,112.980469 123.793945,107.271484 C122.529297,110.8125 121.806641,115.003906 121.806641,119.303711 C121.806641,141.633789 135.609375,155.039062 158.481445,155.039062 C162.347656,155.039062 165.888672,154.569336 168.887695,153.521484 C163.250977,163.349609 152.302734,169.419922 140.270508,169.419922 C121.120117,169.419922 107.136719,155.400391 107.136719,136.213867 Z" id="dark"></path>
        </g>
    </g>
</svg>