<?xml version="1.0" encoding="UTF-8"?>
<svg width="79px" height="78px" viewBox="0 0 79 78" version="1.1" xmlns="http://www.w3.org/2000/svg" xmlns:xlink="http://www.w3.org/1999/xlink">
    <title>light</title>
    <g id="页面-2" stroke="none" stroke-width="1" fill="none" fill-rule="evenodd">
        <g id="bg备份-2" transform="translate(-99.000000, -99.000000)" fill="#FBC02E" fill-rule="nonzero">
            <path d="M140.938965,101.454102 C140.938965,100.117188 139.818848,98.9970703 138.518066,98.9970703 C137.181152,98.9970703 136.061035,100.117188 136.061035,101.454102 L136.061035,109.367188 C136.061035,110.667969 137.181152,111.824219 138.518066,111.824219 C139.818848,111.824219 140.938965,110.667969 140.938965,109.367188 L140.938965,101.454102 Z M156.909668,116.051758 C155.970215,116.991211 155.970215,118.544922 156.909668,119.484375 C157.849121,120.423828 159.402832,120.459961 160.378418,119.484375 L165.979004,113.883789 C166.918457,112.944336 166.918457,111.354492 165.979004,110.415039 C165.039551,109.475586 163.48584,109.475586 162.546387,110.415039 L156.909668,116.051758 Z M116.621582,119.484375 C117.524902,120.423828 119.114746,120.423828 120.054199,119.484375 C120.993652,118.617188 120.993652,116.991211 120.054199,116.051758 L114.489746,110.415039 C113.586426,109.511719 111.996582,109.475586 111.057129,110.415039 C110.117676,111.354492 110.117676,112.944336 111.020996,113.847656 L116.621582,119.484375 Z M138.445801,155.725586 C148.20166,155.725586 156.259277,147.667969 156.259277,137.912109 C156.259277,128.15625 148.20166,120.098633 138.445801,120.098633 C128.726074,120.098633 120.668457,128.15625 120.668457,137.912109 C120.668457,147.667969 128.726074,155.725586 138.445801,155.725586 Z M138.445801,151.461914 C131.038574,151.461914 124.932129,145.319336 124.932129,137.912109 C124.932129,130.504883 131.038574,124.362305 138.445801,124.362305 C145.853027,124.362305 151.995605,130.504883 151.995605,137.912109 C151.995605,145.319336 145.853027,151.461914 138.445801,151.461914 Z M174.903809,140.369141 C176.20459,140.369141 177.324707,139.212891 177.324707,137.912109 C177.324707,136.575195 176.20459,135.455078 174.903809,135.455078 L166.990723,135.455078 C165.689941,135.455078 164.569824,136.575195 164.569824,137.912109 C164.569824,139.212891 165.689941,140.369141 166.990723,140.369141 L174.903809,140.369141 Z M102.132324,135.455078 C100.79541,135.455078 99.675293,136.575195 99.675293,137.912109 C99.675293,139.212891 100.79541,140.369141 102.132324,140.369141 L110.009277,140.369141 C111.310059,140.369141 112.466309,139.212891 112.466309,137.912109 C112.466309,136.575195 111.310059,135.455078 110.009277,135.455078 L102.132324,135.455078 Z M160.342285,156.339844 C159.402832,155.400391 157.849121,155.400391 156.909668,156.339844 C155.970215,157.279297 155.970215,158.833008 156.909668,159.772461 L162.546387,165.40918 C163.48584,166.348633 165.039551,166.3125 165.979004,165.373047 C166.918457,164.433594 166.918457,162.879883 165.979004,161.94043 L160.342285,156.339844 Z M110.984863,161.94043 C110.04541,162.84375 110.04541,164.433594 110.984863,165.373047 C111.888184,166.3125 113.478027,166.3125 114.41748,165.373047 L120.054199,159.808594 C120.993652,158.869141 120.993652,157.31543 120.054199,156.375977 C119.150879,155.436523 117.561035,155.436523 116.621582,156.375977 L110.984863,161.94043 Z M140.938965,166.457031 C140.938965,165.120117 139.818848,164 138.518066,164 C137.181152,164 136.061035,165.120117 136.061035,166.457031 L136.061035,174.370117 C136.061035,175.670898 137.181152,176.791016 138.518066,176.791016 C139.818848,176.791016 140.938965,175.670898 140.938965,174.370117 L140.938965,166.457031 Z" id="light"></path>
        </g>
    </g>
</svg>