<?xml version="1.0" encoding="UTF-8"?>
<svg width="39px" height="60px" viewBox="0 0 39 60" version="1.1" xmlns="http://www.w3.org/2000/svg" xmlns:xlink="http://www.w3.org/1999/xlink">
    <title>N</title>
    <g id="页面-2" stroke="none" stroke-width="1" fill="none" fill-rule="evenodd">
        <g id="桌面端-HD" transform="translate(-701.000000, -689.000000)" fill="#E0D4D0" fill-rule="nonzero">
            <path d="M726.733398,744.662109 C726.504883,747.125 724.016602,748.724609 720.512695,748.724609 C716.983398,748.724609 714.520508,747.125 714.291992,744.662109 L714.291992,744.662109 Z M728.764648,737.832031 C730.05957,737.832031 731.100586,738.898438 731.100586,740.21875 C731.100586,741.539062 730.05957,742.605469 728.764648,742.605469 L728.764648,742.605469 L712.286133,742.605469 C710.991211,742.605469 709.924805,741.539062 709.924805,740.21875 C709.924805,738.898438 710.991211,737.832031 712.286133,737.832031 L712.286133,737.832031 Z M720.487305,689.945312 C732.192383,689.945312 740.012695,697.664062 740.012695,709.216797 C740.012695,720.185547 731.100586,724.146484 731.100586,730.291016 L731.100586,730.291016 L731.100586,734.353516 C731.100586,735.216797 730.541992,735.75 729.678711,735.75 L729.678711,735.75 L711.295898,735.75 C710.458008,735.75 709.899414,735.216797 709.899414,734.353516 L709.899414,734.353516 L709.899414,730.291016 C709.899414,724.146484 700.987305,720.185547 700.987305,709.216797 C700.987305,697.664062 708.782227,689.945312 720.487305,689.945312 Z M720.487305,693.779297 C711.092773,693.779297 704.821289,699.949219 704.821289,709.242188 C704.821289,718.890625 713.682617,722.876953 713.682617,730.341797 L713.682617,730.341797 L713.682617,731.916016 L727.317383,731.916016 L727.317383,730.341797 C727.317383,722.876953 736.178711,718.890625 736.178711,709.242188 C736.178711,699.949219 729.907227,693.779297 720.487305,693.779297 Z M723.555664,705.964844 C724.423828,705.964844 724.922852,706.470703 724.922852,707.400391 L724.922852,707.400391 L724.922852,714.831055 C724.922852,715.699219 724.451172,716.170898 723.589844,716.170898 C723.036133,716.170898 722.646484,715.938477 722.236328,715.37793 L722.236328,715.37793 L718.866211,710.804688 L718.811523,710.804688 L718.811523,714.735352 C718.811523,715.665039 718.305664,716.170898 717.444336,716.170898 C716.576172,716.170898 716.077148,715.665039 716.077148,714.735352 L716.077148,714.735352 L716.077148,707.304688 C716.077148,706.429688 716.555664,705.964844 717.444336,705.964844 C717.970703,705.964844 718.374023,706.204102 718.791016,706.757812 L718.791016,706.757812 L722.133789,711.249023 L722.188477,711.249023 L722.188477,707.400391 C722.188477,706.470703 722.694336,705.964844 723.555664,705.964844 Z" id="N"></path>
        </g>
    </g>
</svg>