<?xml version="1.0" encoding="UTF-8"?>
<svg width="96px" height="19px" viewBox="0 0 96 19" version="1.1" xmlns="http://www.w3.org/2000/svg" xmlns:xlink="http://www.w3.org/1999/xlink">
    <title>形状结合</title>
    <defs>
        <radialGradient cx="50%" cy="50%" fx="50%" fy="50%" r="235.011325%" gradientTransform="translate(0.500000,0.500000),scale(0.192524,1.000000),rotate(90.000000),scale(1.000000,0.980389),translate(-0.500000,-0.500000)" id="radialGradient-1">
            <stop stop-color="#95B5E4" offset="0%"></stop>
            <stop stop-color="#D2E2F9" offset="100%"></stop>
        </radialGradient>
    </defs>
    <g id="页面-2" stroke="none" stroke-width="1" fill="none" fill-rule="evenodd">
        <g id="桌面端-HD备份-2" transform="translate(-100.000000, -711.000000)" fill="url(#radialGradient-1)" fill-rule="nonzero">
            <path d="M100.92,720.8 L103.4,720.8 L103,718.22 C103.52,717.16 104.38,716.42 105.56,716.42 C106.64,716.42 107.64,717.26 107.82,718.48 L108.74,725.12 L111.2,725.12 L110.26,718.32 C109.84,715.36 108.46,714.04 106,714.04 C104.3,714.04 103.18,715.1 102.74,715.84 L102.48,714.3 L100,714.3 L100.92,720.8 Z M118.12,714.08 L118.28,716.14 C119.56,716.4 120.56,717.38 120.74,718.74 L118.7,718.66 L118.96,720.54 L123.14,720.48 C123.2,720.2 123.22,719.56 123.16,719.02 C122.82,716.62 121.14,714.4 118.12,714.08 Z M112.68,719.96 C113.14,723.28 115.68,725.4 119.18,725.4 C121.26,725.4 122.88,724.88 123.68,724.18 L122.92,722.3 C122.2,722.94 120.82,723.26 119.3,723.26 C117.48,723.26 115.68,722.24 115.36,720.46 L114.62,714.8 C113.06,715.8 112.36,717.74 112.68,719.96 Z M140.82,720.8 L140.9,721.42 C141.06,722.5 141.8,723.14 142.66,723.14 C143.28,723.14 143.72,722.98 144.02,722.64 L144.02,722.64 L144.82,724.46 C144.4,724.96 143.56,725.4 142.36,725.4 C140.22,725.4 138.84,724.3 138.44,721.58 L138.44,721.58 L138.34,720.8 L140.82,720.8 Z M126.64,714.3 L136.08,725.12 L133.16,725.12 L123.76,714.3 L126.64,714.3 Z M126.98,721.68 L128.8,723.76 L128,725.12 L125.24,725.12 L126.98,721.68 Z M133.9,714.3 L132.28,717.42 L130.64,715.46 L131.22,714.3 L133.9,714.3 Z M139.44,711 L139.9,714.3 L142.66,714.3 L142.96,716.38 L136.02,716.38 L135.72,714.3 L137.42,714.3 L136.98,711.14 L139.44,711 Z M154.22,720.22 L153.86,717.22 C153.76,716.5 154.7,716.04 155.98,716.04 C157.56,716.04 159,716.82 159.32,717.24 L159.72,715.26 C159.46,715 158.08,714.04 155.96,714.04 C153.26,714.04 151.12,715.4 151.42,717.56 C151.64,719.08 152.78,719.8 154.22,720.22 Z M159.28,725.04 C160.8,724.52 161.54,723.36 161.28,721.58 C161.04,719.84 159.74,719.2 157.36,718.68 L157.56,720.98 C158.32,721.22 158.86,721.6 158.92,722.08 L159.28,725.04 Z M156.08,725.38 L155.92,723.28 C154.3,723.12 152.86,722.36 152.38,721.86 L152.32,724.24 C152.82,724.58 154.04,725.26 156.08,725.38 Z M162.36,716.38 L169.3,716.38 L169,714.3 L166.24,714.3 L165.78,711 L163.32,711.14 L163.76,714.3 L162.06,714.3 L162.36,716.38 Z M168.7,725.4 C169.9,725.4 170.74,724.96 171.16,724.46 L170.36,722.64 C170.06,722.98 169.62,723.14 169,723.14 C168.14,723.14 167.4,722.5 167.24,721.42 L167.16,720.8 L164.68,720.8 L164.78,721.58 C165.18,724.3 166.56,725.4 168.7,725.4 Z M177.4,714.08 L177.56,716.14 C178.84,716.4 179.84,717.38 180.02,718.74 L177.98,718.66 L178.24,720.54 L182.42,720.48 C182.48,720.2 182.5,719.56 182.44,719.02 C182.1,716.62 180.42,714.4 177.4,714.08 Z M171.96,719.96 C172.42,723.28 174.96,725.4 178.46,725.4 C180.54,725.4 182.16,724.88 182.96,724.18 L182.2,722.3 C181.48,722.94 180.1,723.26 178.58,723.26 C176.76,723.26 174.96,722.24 174.64,720.46 L173.9,714.8 C172.34,715.8 171.64,717.74 171.96,719.96 Z M186.1,729.44 L188.58,729.44 L186.96,718.1 C187.2,717.26 188.08,716.1 189.56,716.1 C191.56,716.1 192.98,717.56 193.3,719.74 C193.5,721.3 192.96,723.12 191.02,723.32 L191.18,725.4 C194.32,725.34 196.2,722.86 195.7,719.42 C195.28,716.44 193.2,714.04 190.02,714.04 C188.34,714.04 187.2,715 186.68,715.9 L186.42,714.3 L183.96,714.3 L186.1,729.44 Z" id="形状结合"></path>
        </g>
    </g>
</svg>
