<?xml version="1.0" encoding="UTF-8"?>
<svg width="97px" height="20px" viewBox="0 0 97 20" version="1.1" xmlns="http://www.w3.org/2000/svg" xmlns:xlink="http://www.w3.org/1999/xlink">
    <title>形状结合</title>
    <defs>
        <linearGradient x1="0%" y1="50.3649879%" x2="104.122065%" y2="50%" id="linearGradient-1">
            <stop stop-color="#8CBAFF" offset="0%"></stop>
            <stop stop-color="#EDF8FF" offset="100%"></stop>
        </linearGradient>
    </defs>
    <g id="页面-2" stroke="none" stroke-width="1" fill="none" fill-rule="evenodd">
        <g id="桌面端-HD备份-2" transform="translate(-1175.000000, -137.000000)" fill="url(#linearGradient-1)" fill-rule="nonzero">
            <g id="编组-2" transform="translate(1157.000000, 10.000000)">
                <path d="M19.73,137.68 L22.21,137.68 L21.81,135.1 C22.33,134.04 23.19,133.3 24.37,133.3 C25.45,133.3 26.45,134.14 26.63,135.36 L27.55,142 L30.01,142 L29.07,135.2 C28.65,132.24 27.27,130.92 24.81,130.92 C23.11,130.92 21.99,131.98 21.55,132.72 L21.29,131.18 L18.81,131.18 L19.73,137.68 Z M36.93,130.96 L37.09,133.02 C38.37,133.28 39.37,134.26 39.55,135.62 L37.51,135.54 L37.77,137.42 L41.95,137.36 C42.01,137.08 42.03,136.44 41.97,135.9 C41.63,133.5 39.95,131.28 36.93,130.96 Z M31.49,136.84 C31.95,140.16 34.49,142.28 37.99,142.28 C40.07,142.28 41.69,141.76 42.49,141.06 L41.73,139.18 C41.01,139.82 39.63,140.14 38.11,140.14 C36.29,140.14 34.49,139.12 34.17,137.34 L33.43,131.68 C31.87,132.68 31.17,134.62 31.49,136.84 Z M59.63,137.68 L59.71,138.3 C59.87,139.38 60.61,140.02 61.47,140.02 C62.09,140.02 62.53,139.86 62.83,139.52 L62.83,139.52 L63.63,141.34 C63.21,141.84 62.37,142.28 61.17,142.28 C59.03,142.28 57.65,141.18 57.25,138.46 L57.25,138.46 L57.15,137.68 L59.63,137.68 Z M45.45,131.18 L54.89,142 L51.97,142 L42.57,131.18 L45.45,131.18 Z M45.79,138.56 L47.61,140.64 L46.81,142 L44.05,142 L45.79,138.56 Z M52.71,131.18 L51.09,134.3 L49.45,132.34 L50.03,131.18 L52.71,131.18 Z M58.25,127.88 L58.71,131.18 L61.47,131.18 L61.77,133.26 L54.83,133.26 L54.53,131.18 L56.23,131.18 L55.79,128.02 L58.25,127.88 Z M73.03,137.1 L72.67,134.1 C72.57,133.38 73.51,132.92 74.79,132.92 C76.37,132.92 77.81,133.7 78.13,134.12 L78.53,132.14 C78.27,131.88 76.89,130.92 74.77,130.92 C72.07,130.92 69.93,132.28 70.23,134.44 C70.45,135.96 71.59,136.68 73.03,137.1 Z M78.09,141.92 C79.61,141.4 80.35,140.24 80.09,138.46 C79.85,136.72 78.55,136.08 76.17,135.56 L76.37,137.86 C77.13,138.1 77.67,138.48 77.73,138.96 L78.09,141.92 Z M74.89,142.26 L74.73,140.16 C73.11,140 71.67,139.24 71.19,138.74 L71.13,141.12 C71.63,141.46 72.85,142.14 74.89,142.26 Z M81.17,133.26 L88.11,133.26 L87.81,131.18 L85.05,131.18 L84.59,127.88 L82.13,128.02 L82.57,131.18 L80.87,131.18 L81.17,133.26 Z M87.51,142.28 C88.71,142.28 89.55,141.84 89.97,141.34 L89.17,139.52 C88.87,139.86 88.43,140.02 87.81,140.02 C86.95,140.02 86.21,139.38 86.05,138.3 L85.97,137.68 L83.49,137.68 L83.59,138.46 C83.99,141.18 85.37,142.28 87.51,142.28 Z M96.21,130.96 L96.37,133.02 C97.65,133.28 98.65,134.26 98.83,135.62 L96.79,135.54 L97.05,137.42 L101.23,137.36 C101.29,137.08 101.31,136.44 101.25,135.9 C100.91,133.5 99.23,131.28 96.21,130.96 Z M90.77,136.84 C91.23,140.16 93.77,142.28 97.27,142.28 C99.35,142.28 100.97,141.76 101.77,141.06 L101.01,139.18 C100.29,139.82 98.91,140.14 97.39,140.14 C95.57,140.14 93.77,139.12 93.45,137.34 L92.71,131.68 C91.15,132.68 90.45,134.62 90.77,136.84 Z M104.91,146.32 L107.39,146.32 L105.77,134.98 C106.01,134.14 106.89,132.98 108.37,132.98 C110.37,132.98 111.79,134.44 112.11,136.62 C112.31,138.18 111.77,140 109.83,140.2 L109.99,142.28 C113.13,142.22 115.01,139.74 114.51,136.3 C114.09,133.32 112.01,130.92 108.83,130.92 C107.15,130.92 106.01,131.88 105.49,132.78 L105.23,131.18 L102.77,131.18 L104.91,146.32 Z" id="形状结合"></path>
            </g>
        </g>
    </g>
</svg>