<?xml version="1.0" encoding="UTF-8"?>
<svg width="39px" height="60px" viewBox="0 0 39 60" version="1.1" xmlns="http://www.w3.org/2000/svg" xmlns:xlink="http://www.w3.org/1999/xlink">
    <title>W</title>
    <g id="页面-2" stroke="none" stroke-width="1" fill="none" fill-rule="evenodd">
        <g id="桌面端-HD" transform="translate(-987.000000, -689.000000)" fill="#F2E9E3" fill-rule="nonzero">
            <path d="M1012.7334,744.662109 C1012.50488,747.125 1010.0166,748.724609 1006.5127,748.724609 C1002.9834,748.724609 1000.52051,747.125 1000.29199,744.662109 L1000.29199,744.662109 Z M1014.76465,737.832031 C1016.05957,737.832031 1017.10059,738.898438 1017.10059,740.21875 C1017.10059,741.539062 1016.05957,742.605469 1014.76465,742.605469 L1014.76465,742.605469 L998.286133,742.605469 C996.991211,742.605469 995.924805,741.539062 995.924805,740.21875 C995.924805,738.898438 996.991211,737.832031 998.286133,737.832031 L998.286133,737.832031 Z M1006.4873,689.945312 C1018.19238,689.945312 1026.0127,697.664062 1026.0127,709.216797 C1026.0127,720.185547 1017.10059,724.146484 1017.10059,730.291016 L1017.10059,730.291016 L1017.10059,734.353516 C1017.10059,735.216797 1016.54199,735.75 1015.67871,735.75 L1015.67871,735.75 L997.295898,735.75 C996.458008,735.75 995.899414,735.216797 995.899414,734.353516 L995.899414,734.353516 L995.899414,730.291016 C995.899414,724.146484 986.987305,720.185547 986.987305,709.216797 C986.987305,697.664062 994.782227,689.945312 1006.4873,689.945312 Z M1006.4873,693.779297 C997.092773,693.779297 990.821289,699.949219 990.821289,709.242188 C990.821289,718.890625 999.682617,722.876953 999.682617,730.341797 L999.682617,730.341797 L999.682617,731.916016 L1013.31738,731.916016 L1013.31738,730.341797 C1013.31738,722.876953 1022.17871,718.890625 1022.17871,709.242188 C1022.17871,699.949219 1015.90723,693.779297 1006.4873,693.779297 Z M1011.53809,705.964844 C1012.44043,705.964844 1012.9668,706.436523 1012.9668,707.256836 C1012.9668,707.509766 1012.90527,707.913086 1012.80273,708.289062 L1012.80273,708.289062 L1011.08691,714.673828 C1010.7998,715.719727 1010.29395,716.170898 1009.3916,716.170898 C1008.44141,716.170898 1007.92871,715.726562 1007.64844,714.660156 L1007.64844,714.660156 L1006.52734,710.353516 L1006.47266,710.353516 L1005.35156,714.660156 C1005.08496,715.699219 1004.54492,716.170898 1003.62891,716.170898 C1002.69922,716.170898 1002.19336,715.726562 1001.90625,714.65332 L1001.90625,714.65332 L1000.19727,708.289062 C1000.10156,707.926758 1000.0332,707.516602 1000.0332,707.256836 C1000.0332,706.436523 1000.55957,705.964844 1001.46191,705.964844 C1002.2207,705.964844 1002.67188,706.381836 1002.84277,707.25 L1002.84277,707.25 L1003.85449,712.370117 L1003.90918,712.370117 L1005.14648,707.113281 C1005.33105,706.327148 1005.76172,705.964844 1006.5,705.964844 C1007.21094,705.964844 1007.67578,706.361328 1007.85352,707.113281 L1007.85352,707.113281 L1009.09082,712.370117 L1009.14551,712.370117 L1010.15723,707.25 C1010.32812,706.381836 1010.7793,705.964844 1011.53809,705.964844 Z" id="W"></path>
        </g>
    </g>
</svg>